<?xml version="1.0"?>
<svg xmlns="http://www.w3.org/2000/svg" viewBox="0 0 50 50">
    <path d="M 3 12 L 3 18.71875 C 3 18.72175 3 18.747 3 18.75 L 3 31.25 C 3 31.253 3 31.27825 3 31.28125 L 3 38 L 10.53125 38 C 10.53625 38 10.5565 38 10.5625 38 L 32.78125 38 C 32.44125 37.366 32.20675 36.693 32.09375 36 L 10.5625 36 C 9.5675 36 9.21875 35.44825 8.71875 34.28125 C 8.51575 33.80725 8.33 33.36025 8 33.03125 C 7.622 32.65325 7.05275 32.44275 6.46875 32.21875 C 5.66275 31.90875 5 31.614 5 31.25 L 5 18.75 C 5 18.385 5.66275 18.09025 6.46875 17.78125 C 7.05275 17.55725 7.622 17.34575 8 16.96875 C 8.33 16.63875 8.51475 16.19275 8.71875 15.71875 C 9.21875 14.55175 9.5675 14 10.5625 14 L 39.4375 14 C 40.4335 14 40.78125 14.55275 41.28125 15.71875 C 41.48325 16.19275 41.671 16.63875 42 16.96875 C 42.379 17.34675 42.94725 17.55725 43.53125 17.78125 C 44.33825 18.09125 45 18.386 45 18.75 L 45 28 L 47 28 L 47 18.75 C 47 18.744 47 18.72475 47 18.71875 L 47 12 L 39.46875 12 C 39.46375 12 39.4435 12 39.4375 12 L 10.5625 12 C 10.5575 12 10.53725 12 10.53125 12 L 3 12 z M 25 15 C 20.037 15 16 19.486 16 25 C 16 30.514 20.037 35 25 35 C 27.112 35 29.05675 34.1705 30.59375 32.8125 C 30.22275 32.3135 30 31.699 30 31 C 30 29.29 31.29 28 33 28 L 33.59375 28 C 33.86275 27.052 34 26.045 34 25 C 34 19.486 29.963 15 25 15 z M 10.5 23 C 9.121 23 8 24.122 8 25.5 C 8 26.878 9.121 28 10.5 28 C 11.879 28 13 26.878 13 25.5 C 13 24.122 11.879 23 10.5 23 z M 39.5 23 C 38.121 23 37 24.122 37 25.5 C 37 26.878 38.121 28 39.5 28 C 40.879 28 42 26.878 42 25.5 C 42 24.122 40.879 23 39.5 23 z M 33 30 C 32.4 30 32 30.4 32 31 C 32 31.6 32.4 32 33 32 L 34 32 L 34 35 C 34 36.4 34.70625 37.6875 35.90625 38.6875 L 37.5 40 L 36 41.3125 C 34.7 42.3125 34 43.5 34 45 L 34 48 L 33 48 C 32.4 48 32 48.4 32 49 C 32 49.6 32.4 50 33 50 L 49 50 C 49.6 50 50 49.6 50 49 C 50 48.4 49.60625 48 48.90625 48 L 48 48 L 48 45 C 48 43.6 47.3 42.3125 46 41.3125 L 44.5 40 L 46 38.6875 C 47.3 37.6875 48 36.4 48 35 L 48 32 L 49 32 C 49.6 32 50 31.6 50 31 C 50 30.4 49.6 30 49 30 L 33 30 z M 36 32 L 46 32 L 46 35 C 46 35.8 45.6125 36.4875 44.8125 37.1875 L 42.40625 39.1875 C 42.10625 39.3875 42 39.7 42 40 C 42 40.3 42.10625 40.5875 42.40625 40.6875 L 44.8125 42.8125 C 45.6125 43.5125 46 44.1 46 45 L 46 48 L 44 48 C 44 46 41 44 41 44 C 41 44 38 46 38 48 L 36 48 L 36 45 C 36 44.1 36.3875 43.5125 37.1875 42.8125 L 39.59375 40.8125 C 39.89375 40.6125 40 40.3 40 40 C 40 39.7 39.89375 39.4125 39.59375 39.3125 L 37.1875 37.1875 C 36.3875 36.4875 36 35.8 36 35 L 36 32 z M 38 35 C 38 37.2 41 38 41 38 C 41 38 44 37.2 44 35 L 38 35 z"/>
</svg>
